<svg width="1659" height="999" xmlns="http://www.w3.org/2000/svg" xmlns:xlink="http://www.w3.org/1999/xlink" xml:space="preserve" overflow="hidden"><defs><clipPath id="clip0"><rect x="3350" y="1938" width="1659" height="999"/></clipPath><clipPath id="clip1"><rect x="3355" y="1943" width="1650" height="990"/></clipPath><clipPath id="clip2"><rect x="3494" y="2169" width="1144" height="661"/></clipPath><clipPath id="clip3"><rect x="3494" y="2169" width="1144" height="661"/></clipPath><clipPath id="clip4"><rect x="3494" y="2169" width="1144" height="661"/></clipPath><clipPath id="clip5"><rect x="3494" y="2169" width="1144" height="661"/></clipPath><clipPath id="clip6"><rect x="3355" y="1943" width="1650" height="990"/></clipPath><clipPath id="clip7"><rect x="3355" y="1943" width="1650" height="990"/></clipPath><clipPath id="clip8"><rect x="3355" y="1943" width="1650" height="990"/></clipPath><clipPath id="clip9"><rect x="3355" y="1943" width="1650" height="990"/></clipPath><clipPath id="clip10"><rect x="3355" y="1943" width="1650" height="990"/></clipPath><clipPath id="clip11"><rect x="3355" y="1943" width="1650" height="990"/></clipPath><clipPath id="clip12"><rect x="3355" y="1943" width="1650" height="990"/></clipPath><clipPath id="clip13"><rect x="3355" y="1943" width="1650" height="990"/></clipPath><clipPath id="clip14"><rect x="3355" y="1943" width="1650" height="990"/></clipPath><clipPath id="clip15"><rect x="3355" y="1943" width="1650" height="990"/></clipPath><clipPath id="clip16"><rect x="3355" y="1943" width="1650" height="990"/></clipPath><clipPath id="clip17"><rect x="3355" y="1943" width="1650" height="990"/></clipPath><clipPath id="clip18"><rect x="3355" y="1943" width="1650" height="990"/></clipPath><clipPath id="clip19"><rect x="3355" y="1943" width="1650" height="990"/></clipPath><clipPath id="clip20"><rect x="3355" y="1943" width="1650" height="990"/></clipPath><clipPath id="clip21"><rect x="3355" y="1943" width="1650" height="990"/></clipPath><clipPath id="clip22"><rect x="3355" y="1943" width="1650" height="990"/></clipPath><clipPath id="clip23"><rect x="3355" y="1943" width="1650" height="990"/></clipPath><clipPath id="clip24"><rect x="3355" y="1943" width="1650" height="990"/></clipPath><clipPath id="clip25"><rect x="3355" y="1943" width="1650" height="990"/></clipPath><clipPath id="clip26"><rect x="3355" y="1943" width="1650" height="990"/></clipPath><clipPath id="clip27"><rect x="3355" y="1943" width="1650" height="990"/></clipPath><clipPath id="clip28"><rect x="3355" y="1943" width="1650" height="990"/></clipPath><clipPath id="clip29"><rect x="3355" y="1943" width="1650" height="990"/></clipPath><clipPath id="clip30"><rect x="3355" y="1943" width="1650" height="990"/></clipPath></defs><g clip-path="url(#clip0)" transform="translate(-3350 -1938)"><rect x="3355" y="1943" width="1650" height="990" fill="#FFFFFF" fill-opacity="1"/><g clip-path="url(#clip1)"><path d="M3494.5 2744.59 4634.5 2744.59M3494.5 2662.59 4634.5 2662.59M3494.5 2580.58 4634.5 2580.58M3494.5 2498.58 4634.5 2498.58M3494.5 2415.58 4634.5 2415.58M3494.5 2333.58 4634.5 2333.58M3494.5 2251.57 4634.5 2251.57M3494.5 2169.5 4634.5 2169.5" stroke="#D9D9D9" stroke-width="3.4375" stroke-linecap="butt" stroke-linejoin="round" stroke-miterlimit="10" stroke-opacity="1" fill="none" fill-rule="nonzero"/></g><g clip-path="url(#clip2)"><path d="M3579.5 2267.5 3693.5 2267.5 3693.5 2827.5 3579.5 2827.5Z" stroke="#FFFFFF" stroke-width="6.875" stroke-linecap="butt" stroke-linejoin="round" stroke-miterlimit="10" stroke-opacity="1" fill="#322E2D" fill-rule="nonzero" fill-opacity="1"/></g><g clip-path="url(#clip3)"><path d="M3864.5 2358.5 3978.5 2358.5 3978.5 2827.5 3864.5 2827.5Z" stroke="#FFFFFF" stroke-width="6.875" stroke-linecap="butt" stroke-linejoin="round" stroke-miterlimit="10" stroke-opacity="1" fill="#2165AE" fill-rule="nonzero" fill-opacity="1"/></g><g clip-path="url(#clip4)"><path d="M4150.5 2580.5 4264.5 2580.5 4264.5 2827.5 4150.5 2827.5Z" stroke="#FFFFFF" stroke-width="6.875" stroke-linecap="butt" stroke-linejoin="round" stroke-miterlimit="10" stroke-opacity="1" fill="#F15524" fill-rule="nonzero" fill-opacity="1"/></g><g clip-path="url(#clip5)"><path d="M4435.5 2613.5 4549.5 2613.5 4549.5 2827.5 4435.5 2827.5Z" stroke="#FFFFFF" stroke-width="6.875" stroke-linecap="butt" stroke-linejoin="round" stroke-miterlimit="10" stroke-opacity="1" fill="#F37022" fill-rule="nonzero" fill-opacity="1"/></g><g clip-path="url(#clip6)"><path d="M3494.5 2827.5 4634.5 2827.5" stroke="#D9D9D9" stroke-width="3.4375" stroke-linecap="butt" stroke-linejoin="round" stroke-miterlimit="10" stroke-opacity="1" fill="none" fill-rule="evenodd"/></g><g clip-path="url(#clip7)"><path d="M3494.5 2827.5 3494.5 2840.5M3779.62 2827.5 3779.62 2840.5M4064.63 2827.5 4064.63 2840.5M4349.64 2827.5 4349.64 2840.5M4634.5 2827.5 4634.5 2840.5" stroke="#D9D9D9" stroke-width="3.4375" stroke-linecap="butt" stroke-linejoin="round" stroke-miterlimit="10" stroke-opacity="1" fill="none" fill-rule="nonzero"/></g><g clip-path="url(#clip8)"><text fill="#595959" fill-opacity="1" font-family="Calibri,Calibri_MSFontService,sans-serif" font-style="normal" font-variant="normal" font-weight="400" font-stretch="normal" font-size="41" text-anchor="start" direction="ltr" writing-mode="lr-tb" unicode-bidi="normal" text-decoration="none" transform="matrix(1 0 0 1 3530.74 2892)">GitHub Have</text></g><g clip-path="url(#clip9)"><text fill="#595959" fill-opacity="1" font-family="Calibri,Calibri_MSFontService,sans-serif" font-style="normal" font-variant="normal" font-weight="400" font-stretch="normal" font-size="41" text-anchor="start" direction="ltr" writing-mode="lr-tb" unicode-bidi="normal" text-decoration="none" transform="matrix(1 0 0 1 3812.14 2892)">GitHub Want</text></g><g clip-path="url(#clip10)"><text fill="#595959" fill-opacity="1" font-family="Calibri,Calibri_MSFontService,sans-serif" font-style="normal" font-variant="normal" font-weight="400" font-stretch="normal" font-size="41" text-anchor="start" direction="ltr" writing-mode="lr-tb" unicode-bidi="normal" text-decoration="none" transform="matrix(1 0 0 1 4106.01 2892)">GitLab Have</text></g><g clip-path="url(#clip11)"><text fill="#595959" fill-opacity="1" font-family="Calibri,Calibri_MSFontService,sans-serif" font-style="normal" font-variant="normal" font-weight="400" font-stretch="normal" font-size="41" text-anchor="start" direction="ltr" writing-mode="lr-tb" unicode-bidi="normal" text-decoration="none" transform="matrix(1 0 0 1 4387.42 2892)">GitLab Want</text></g><g clip-path="url(#clip12)"><text fill="#595959" fill-opacity="1" font-family="Calibri,Calibri_MSFontService,sans-serif" font-style="normal" font-variant="normal" font-weight="400" font-stretch="normal" font-size="41" text-anchor="start" direction="ltr" writing-mode="lr-tb" unicode-bidi="normal" text-decoration="none" transform="matrix(1 0 0 1 3405.69 2837)">0%</text></g><g clip-path="url(#clip13)"><text fill="#595959" fill-opacity="1" font-family="Calibri,Calibri_MSFontService,sans-serif" font-style="normal" font-variant="normal" font-weight="400" font-stretch="normal" font-size="41" text-anchor="start" direction="ltr" writing-mode="lr-tb" unicode-bidi="normal" text-decoration="none" transform="matrix(1 0 0 1 3384.79 2755)">10%</text></g><g clip-path="url(#clip14)"><text fill="#595959" fill-opacity="1" font-family="Calibri,Calibri_MSFontService,sans-serif" font-style="normal" font-variant="normal" font-weight="400" font-stretch="normal" font-size="41" text-anchor="start" direction="ltr" writing-mode="lr-tb" unicode-bidi="normal" text-decoration="none" transform="matrix(1 0 0 1 3384.79 2673)">20%</text></g><g clip-path="url(#clip15)"><text fill="#595959" fill-opacity="1" font-family="Calibri,Calibri_MSFontService,sans-serif" font-style="normal" font-variant="normal" font-weight="400" font-stretch="normal" font-size="41" text-anchor="start" direction="ltr" writing-mode="lr-tb" unicode-bidi="normal" text-decoration="none" transform="matrix(1 0 0 1 3384.79 2590)">30%</text></g><g clip-path="url(#clip16)"><text fill="#595959" fill-opacity="1" font-family="Calibri,Calibri_MSFontService,sans-serif" font-style="normal" font-variant="normal" font-weight="400" font-stretch="normal" font-size="41" text-anchor="start" direction="ltr" writing-mode="lr-tb" unicode-bidi="normal" text-decoration="none" transform="matrix(1 0 0 1 3384.79 2508)">40%</text></g><g clip-path="url(#clip17)"><text fill="#595959" fill-opacity="1" font-family="Calibri,Calibri_MSFontService,sans-serif" font-style="normal" font-variant="normal" font-weight="400" font-stretch="normal" font-size="41" text-anchor="start" direction="ltr" writing-mode="lr-tb" unicode-bidi="normal" text-decoration="none" transform="matrix(1 0 0 1 3384.79 2426)">50%</text></g><g clip-path="url(#clip18)"><text fill="#595959" fill-opacity="1" font-family="Calibri,Calibri_MSFontService,sans-serif" font-style="normal" font-variant="normal" font-weight="400" font-stretch="normal" font-size="41" text-anchor="start" direction="ltr" writing-mode="lr-tb" unicode-bidi="normal" text-decoration="none" transform="matrix(1 0 0 1 3384.79 2344)">60%</text></g><g clip-path="url(#clip19)"><text fill="#595959" fill-opacity="1" font-family="Calibri,Calibri_MSFontService,sans-serif" font-style="normal" font-variant="normal" font-weight="400" font-stretch="normal" font-size="41" text-anchor="start" direction="ltr" writing-mode="lr-tb" unicode-bidi="normal" text-decoration="none" transform="matrix(1 0 0 1 3384.79 2262)">70%</text></g><g clip-path="url(#clip20)"><text fill="#595959" fill-opacity="1" font-family="Calibri,Calibri_MSFontService,sans-serif" font-style="normal" font-variant="normal" font-weight="400" font-stretch="normal" font-size="41" text-anchor="start" direction="ltr" writing-mode="lr-tb" unicode-bidi="normal" text-decoration="none" transform="matrix(1 0 0 1 3384.79 2179)">80%</text></g><g clip-path="url(#clip21)"><text fill="#595959" fill-opacity="1" font-family="Calibri,Calibri_MSFontService,sans-serif" font-style="normal" font-variant="normal" font-weight="400" font-stretch="normal" font-size="64" text-anchor="start" direction="ltr" writing-mode="lr-tb" unicode-bidi="normal" text-decoration="none" transform="matrix(1 0 0 1 3762.26 2039)">GitHub.com vs GitLab.com 2020</text></g><g clip-path="url(#clip22)"><text fill="#595959" fill-opacity="1" font-family="Calibri,Calibri_MSFontService,sans-serif" font-style="normal" font-variant="normal" font-weight="400" font-stretch="normal" font-size="46" text-anchor="start" direction="ltr" writing-mode="lr-tb" unicode-bidi="normal" text-decoration="none" transform="matrix(1 0 0 1 3894.31 2100)">(Data: Stack Overflow Insights)</text></g><g clip-path="url(#clip23)"><rect x="4706.5" y="2398.5" width="23" height="23" stroke="#FFFFFF" stroke-width="6.875" stroke-linecap="butt" stroke-linejoin="round" stroke-miterlimit="10" stroke-opacity="1" fill="#322E2D" fill-opacity="1"/></g><g clip-path="url(#clip24)"><text fill="#595959" fill-opacity="1" font-family="Calibri,Calibri_MSFontService,sans-serif" font-style="normal" font-variant="normal" font-weight="400" font-stretch="normal" font-size="41" text-anchor="start" direction="ltr" writing-mode="lr-tb" unicode-bidi="normal" text-decoration="none" transform="matrix(1 0 0 1 4738.96 2420)">GitHub Have</text></g><g clip-path="url(#clip25)"><rect x="4706.5" y="2476.5" width="23" height="22" stroke="#FFFFFF" stroke-width="6.875" stroke-linecap="butt" stroke-linejoin="round" stroke-miterlimit="10" stroke-opacity="1" fill="#2165AE" fill-opacity="1"/></g><g clip-path="url(#clip26)"><text fill="#595959" fill-opacity="1" font-family="Calibri,Calibri_MSFontService,sans-serif" font-style="normal" font-variant="normal" font-weight="400" font-stretch="normal" font-size="41" text-anchor="start" direction="ltr" writing-mode="lr-tb" unicode-bidi="normal" text-decoration="none" transform="matrix(1 0 0 1 4738.96 2497)">GitHub Want</text></g><g clip-path="url(#clip27)"><rect x="4706.5" y="2553.5" width="23" height="23" stroke="#FFFFFF" stroke-width="6.875" stroke-linecap="butt" stroke-linejoin="round" stroke-miterlimit="10" stroke-opacity="1" fill="#F15524" fill-opacity="1"/></g><g clip-path="url(#clip28)"><text fill="#595959" fill-opacity="1" font-family="Calibri,Calibri_MSFontService,sans-serif" font-style="normal" font-variant="normal" font-weight="400" font-stretch="normal" font-size="41" text-anchor="start" direction="ltr" writing-mode="lr-tb" unicode-bidi="normal" text-decoration="none" transform="matrix(1 0 0 1 4738.96 2575)">GitLab Have</text></g><g clip-path="url(#clip29)"><rect x="4706.5" y="2630.5" width="23" height="23" stroke="#FFFFFF" stroke-width="6.875" stroke-linecap="butt" stroke-linejoin="round" stroke-miterlimit="10" stroke-opacity="1" fill="#F37022" fill-opacity="1"/></g><g clip-path="url(#clip30)"><text fill="#595959" fill-opacity="1" font-family="Calibri,Calibri_MSFontService,sans-serif" font-style="normal" font-variant="normal" font-weight="400" font-stretch="normal" font-size="41" text-anchor="start" direction="ltr" writing-mode="lr-tb" unicode-bidi="normal" text-decoration="none" transform="matrix(1 0 0 1 4738.96 2652)">GitLab Want</text></g><rect x="3355.5" y="1943.5" width="1650" height="990" stroke="#D9D9D9" stroke-width="3.4375" stroke-linecap="butt" stroke-linejoin="round" stroke-miterlimit="10" stroke-opacity="1" fill="none"/></g></svg>