<svg width="1659" height="1073" xmlns="http://www.w3.org/2000/svg" xmlns:xlink="http://www.w3.org/1999/xlink" xml:space="preserve" overflow="hidden"><defs><clipPath id="clip0"><rect x="3217" y="137" width="1659" height="1073"/></clipPath><clipPath id="clip1"><rect x="3221" y="142" width="1650" height="1064"/></clipPath><clipPath id="clip2"><rect x="3221" y="142" width="1650" height="1064"/></clipPath><clipPath id="clip3"><rect x="3360" y="368" width="1136" height="735"/></clipPath><clipPath id="clip4"><rect x="3360" y="368" width="1136" height="735"/></clipPath><clipPath id="clip5"><rect x="3360" y="368" width="1136" height="735"/></clipPath><clipPath id="clip6"><rect x="3360" y="368" width="1136" height="735"/></clipPath><clipPath id="clip7"><rect x="3360" y="368" width="1136" height="735"/></clipPath><clipPath id="clip8"><rect x="3221" y="142" width="1650" height="1064"/></clipPath><clipPath id="clip9"><rect x="3221" y="142" width="1650" height="1064"/></clipPath><clipPath id="clip10"><rect x="3221" y="142" width="1650" height="1064"/></clipPath><clipPath id="clip11"><rect x="3221" y="142" width="1650" height="1064"/></clipPath><clipPath id="clip12"><rect x="3221" y="142" width="1650" height="1064"/></clipPath><clipPath id="clip13"><rect x="3221" y="142" width="1650" height="1064"/></clipPath><clipPath id="clip14"><rect x="3221" y="142" width="1650" height="1064"/></clipPath><clipPath id="clip15"><rect x="3221" y="142" width="1650" height="1064"/></clipPath><clipPath id="clip16"><rect x="3221" y="142" width="1650" height="1064"/></clipPath><clipPath id="clip17"><rect x="3221" y="142" width="1650" height="1064"/></clipPath><clipPath id="clip18"><rect x="3221" y="142" width="1650" height="1064"/></clipPath><clipPath id="clip19"><rect x="3221" y="142" width="1650" height="1064"/></clipPath><clipPath id="clip20"><rect x="3221" y="142" width="1650" height="1064"/></clipPath><clipPath id="clip21"><rect x="3221" y="142" width="1650" height="1064"/></clipPath><clipPath id="clip22"><rect x="3221" y="142" width="1650" height="1064"/></clipPath><clipPath id="clip23"><rect x="3221" y="142" width="1650" height="1064"/></clipPath><clipPath id="clip24"><rect x="3221" y="142" width="1650" height="1064"/></clipPath><clipPath id="clip25"><rect x="3221" y="142" width="1650" height="1064"/></clipPath><clipPath id="clip26"><rect x="3221" y="142" width="1650" height="1064"/></clipPath><clipPath id="clip27"><rect x="3221" y="142" width="1650" height="1064"/></clipPath><clipPath id="clip28"><rect x="3221" y="142" width="1650" height="1064"/></clipPath><clipPath id="clip29"><rect x="3221" y="142" width="1650" height="1064"/></clipPath><clipPath id="clip30"><rect x="3221" y="142" width="1650" height="1064"/></clipPath><clipPath id="clip31"><rect x="3221" y="142" width="1650" height="1064"/></clipPath><clipPath id="clip32"><rect x="3221" y="142" width="1650" height="1064"/></clipPath><clipPath id="clip33"><rect x="3221" y="142" width="1650" height="1064"/></clipPath><clipPath id="clip34"><rect x="3221" y="142" width="1650" height="1064"/></clipPath><clipPath id="clip35"><rect x="3221" y="142" width="1650" height="1064"/></clipPath><clipPath id="clip36"><rect x="3221" y="142" width="1650" height="1064"/></clipPath></defs><g clip-path="url(#clip0)" transform="translate(-3217 -137)"><rect x="3221" y="143" width="1650" height="1063" fill="#FFFFFF" fill-opacity="1"/><g clip-path="url(#clip1)"><path d="M3360.5 1018.53 4493.5 1018.53M3360.5 937.531 4493.5 937.531M3360.5 856.528 4493.5 856.528M3360.5 774.526 4493.5 774.526M3360.5 693.523 4493.5 693.523M3360.5 612.52 4493.5 612.52M3360.5 531.518 4493.5 531.518M3360.5 449.515 4493.5 449.515M3360.5 368.5 4493.5 368.5" stroke="#D9D9D9" stroke-width="3.4375" stroke-linecap="butt" stroke-linejoin="round" stroke-miterlimit="10" stroke-opacity="1" fill="none" fill-rule="nonzero"/></g><g clip-path="url(#clip2)"><path d="M3360.5 1099.5 4493.5 1099.5" stroke="#D9D9D9" stroke-width="3.4375" stroke-linecap="butt" stroke-linejoin="round" stroke-miterlimit="10" stroke-opacity="1" fill="none" fill-rule="evenodd"/></g><g clip-path="url(#clip3)"><path d="M3442 1075 3765.12 1092.04 3927.13 1075 4413 1100" stroke="#A5A5A5" stroke-width="10.3125" stroke-linecap="round" stroke-linejoin="round" stroke-miterlimit="10" stroke-opacity="1" fill="none" fill-rule="nonzero"/></g><g clip-path="url(#clip4)"><path d="M3442 1075 3765.12 1100 3927.13 1100 4413 1100" stroke="#70AD47" stroke-width="10.3125" stroke-linecap="round" stroke-linejoin="round" stroke-miterlimit="10" stroke-opacity="1" fill="none" fill-rule="nonzero"/></g><g clip-path="url(#clip5)"><path d="M3442 1043 3765.12 1100 3927.13 1100 4413 1100" stroke="#9DC3E6" stroke-width="10.3125" stroke-linecap="round" stroke-linejoin="round" stroke-miterlimit="10" stroke-opacity="1" fill="none" fill-rule="nonzero"/></g><g clip-path="url(#clip6)"><path d="M3442 751.025 3765.12 767 3927.13 564.018 4413 434" stroke="#ED7D31" stroke-width="10.3125" stroke-linecap="round" stroke-linejoin="round" stroke-miterlimit="10" stroke-opacity="1" fill="none" fill-rule="nonzero"/></g><g clip-path="url(#clip7)"><path d="M3442 1092 3765.12 1100 3927.13 1100 4413 1100" stroke="#00B0F0" stroke-width="10.3125" stroke-linecap="round" stroke-linejoin="round" stroke-miterlimit="10" stroke-opacity="1" fill="none" fill-rule="nonzero"/></g><g clip-path="url(#clip8)"><text fill="#595959" fill-opacity="1" font-family="Calibri,Calibri_MSFontService,sans-serif" font-style="normal" font-variant="normal" font-weight="400" font-stretch="normal" font-size="41" text-anchor="start" direction="ltr" writing-mode="lr-tb" unicode-bidi="normal" text-decoration="none" transform="matrix(1 0 0 1 3272.01 1110)">0%</text></g><g clip-path="url(#clip9)"><text fill="#595959" fill-opacity="1" font-family="Calibri,Calibri_MSFontService,sans-serif" font-style="normal" font-variant="normal" font-weight="400" font-stretch="normal" font-size="41" text-anchor="start" direction="ltr" writing-mode="lr-tb" unicode-bidi="normal" text-decoration="none" transform="matrix(1 0 0 1 3251.11 1029)">10%</text></g><g clip-path="url(#clip10)"><text fill="#595959" fill-opacity="1" font-family="Calibri,Calibri_MSFontService,sans-serif" font-style="normal" font-variant="normal" font-weight="400" font-stretch="normal" font-size="41" text-anchor="start" direction="ltr" writing-mode="lr-tb" unicode-bidi="normal" text-decoration="none" transform="matrix(1 0 0 1 3251.11 947)">20%</text></g><g clip-path="url(#clip11)"><text fill="#595959" fill-opacity="1" font-family="Calibri,Calibri_MSFontService,sans-serif" font-style="normal" font-variant="normal" font-weight="400" font-stretch="normal" font-size="41" text-anchor="start" direction="ltr" writing-mode="lr-tb" unicode-bidi="normal" text-decoration="none" transform="matrix(1 0 0 1 3251.11 866)">30%</text></g><g clip-path="url(#clip12)"><text fill="#595959" fill-opacity="1" font-family="Calibri,Calibri_MSFontService,sans-serif" font-style="normal" font-variant="normal" font-weight="400" font-stretch="normal" font-size="41" text-anchor="start" direction="ltr" writing-mode="lr-tb" unicode-bidi="normal" text-decoration="none" transform="matrix(1 0 0 1 3251.11 785)">40%</text></g><g clip-path="url(#clip13)"><text fill="#595959" fill-opacity="1" font-family="Calibri,Calibri_MSFontService,sans-serif" font-style="normal" font-variant="normal" font-weight="400" font-stretch="normal" font-size="41" text-anchor="start" direction="ltr" writing-mode="lr-tb" unicode-bidi="normal" text-decoration="none" transform="matrix(1 0 0 1 3251.11 704)">50%</text></g><g clip-path="url(#clip14)"><text fill="#595959" fill-opacity="1" font-family="Calibri,Calibri_MSFontService,sans-serif" font-style="normal" font-variant="normal" font-weight="400" font-stretch="normal" font-size="41" text-anchor="start" direction="ltr" writing-mode="lr-tb" unicode-bidi="normal" text-decoration="none" transform="matrix(1 0 0 1 3251.11 623)">60%</text></g><g clip-path="url(#clip15)"><text fill="#595959" fill-opacity="1" font-family="Calibri,Calibri_MSFontService,sans-serif" font-style="normal" font-variant="normal" font-weight="400" font-stretch="normal" font-size="41" text-anchor="start" direction="ltr" writing-mode="lr-tb" unicode-bidi="normal" text-decoration="none" transform="matrix(1 0 0 1 3251.11 541)">70%</text></g><g clip-path="url(#clip16)"><text fill="#595959" fill-opacity="1" font-family="Calibri,Calibri_MSFontService,sans-serif" font-style="normal" font-variant="normal" font-weight="400" font-stretch="normal" font-size="41" text-anchor="start" direction="ltr" writing-mode="lr-tb" unicode-bidi="normal" text-decoration="none" transform="matrix(1 0 0 1 3251.11 460)">80%</text></g><g clip-path="url(#clip17)"><text fill="#595959" fill-opacity="1" font-family="Calibri,Calibri_MSFontService,sans-serif" font-style="normal" font-variant="normal" font-weight="400" font-stretch="normal" font-size="41" text-anchor="start" direction="ltr" writing-mode="lr-tb" unicode-bidi="normal" text-decoration="none" transform="matrix(1 0 0 1 3251.11 379)">90%</text></g><g clip-path="url(#clip18)"><text fill="#595959" fill-opacity="1" font-family="Calibri,Calibri_MSFontService,sans-serif" font-style="normal" font-variant="normal" font-weight="400" font-stretch="normal" font-size="41" text-anchor="start" direction="ltr" writing-mode="lr-tb" unicode-bidi="normal" text-decoration="none" transform="matrix(1 0 0 1 3399.79 1165)">2015</text></g><g clip-path="url(#clip19)"><text fill="#595959" fill-opacity="1" font-family="Calibri,Calibri_MSFontService,sans-serif" font-style="normal" font-variant="normal" font-weight="400" font-stretch="normal" font-size="41" text-anchor="start" direction="ltr" writing-mode="lr-tb" unicode-bidi="normal" text-decoration="none" transform="matrix(1 0 0 1 3561.62 1165)">2016</text></g><g clip-path="url(#clip20)"><text fill="#595959" fill-opacity="1" font-family="Calibri,Calibri_MSFontService,sans-serif" font-style="normal" font-variant="normal" font-weight="400" font-stretch="normal" font-size="41" text-anchor="start" direction="ltr" writing-mode="lr-tb" unicode-bidi="normal" text-decoration="none" transform="matrix(1 0 0 1 3723.46 1165)">2017</text></g><g clip-path="url(#clip21)"><text fill="#595959" fill-opacity="1" font-family="Calibri,Calibri_MSFontService,sans-serif" font-style="normal" font-variant="normal" font-weight="400" font-stretch="normal" font-size="41" text-anchor="start" direction="ltr" writing-mode="lr-tb" unicode-bidi="normal" text-decoration="none" transform="matrix(1 0 0 1 3885.29 1165)">2018</text></g><g clip-path="url(#clip22)"><text fill="#595959" fill-opacity="1" font-family="Calibri,Calibri_MSFontService,sans-serif" font-style="normal" font-variant="normal" font-weight="400" font-stretch="normal" font-size="41" text-anchor="start" direction="ltr" writing-mode="lr-tb" unicode-bidi="normal" text-decoration="none" transform="matrix(1 0 0 1 4047.13 1165)">2019</text></g><g clip-path="url(#clip23)"><text fill="#595959" fill-opacity="1" font-family="Calibri,Calibri_MSFontService,sans-serif" font-style="normal" font-variant="normal" font-weight="400" font-stretch="normal" font-size="41" text-anchor="start" direction="ltr" writing-mode="lr-tb" unicode-bidi="normal" text-decoration="none" transform="matrix(1 0 0 1 4208.96 1165)">2020</text></g><g clip-path="url(#clip24)"><text fill="#595959" fill-opacity="1" font-family="Calibri,Calibri_MSFontService,sans-serif" font-style="normal" font-variant="normal" font-weight="400" font-stretch="normal" font-size="41" text-anchor="start" direction="ltr" writing-mode="lr-tb" unicode-bidi="normal" text-decoration="none" transform="matrix(1 0 0 1 4370.8 1165)">2021</text></g><g clip-path="url(#clip25)"><text fill="#595959" fill-opacity="1" font-family="Calibri,Calibri_MSFontService,sans-serif" font-style="normal" font-variant="normal" font-weight="400" font-stretch="normal" font-size="64" text-anchor="start" direction="ltr" writing-mode="lr-tb" unicode-bidi="normal" text-decoration="none" transform="matrix(1 0 0 1 3659.3 238)">Version Control System Usage</text></g><g clip-path="url(#clip26)"><text fill="#595959" fill-opacity="1" font-family="Calibri,Calibri_MSFontService,sans-serif" font-style="normal" font-variant="normal" font-weight="400" font-stretch="normal" font-size="46" text-anchor="start" direction="ltr" writing-mode="lr-tb" unicode-bidi="normal" text-decoration="none" transform="matrix(1 0 0 1 3760.62 299)">(Data: Stack Overflow Insights)</text></g><g clip-path="url(#clip27)"><path d="M4565 608 4653 608" stroke="#A5A5A5" stroke-width="10.3125" stroke-linecap="round" stroke-linejoin="round" stroke-miterlimit="10" stroke-opacity="1" fill="none" fill-rule="evenodd"/></g><g clip-path="url(#clip28)"><text fill="#595959" fill-opacity="1" font-family="Calibri,Calibri_MSFontService,sans-serif" font-style="normal" font-variant="normal" font-weight="400" font-stretch="normal" font-size="41" text-anchor="start" direction="ltr" writing-mode="lr-tb" unicode-bidi="normal" text-decoration="none" transform="matrix(1 0 0 1 4662.52 618)">Mercurial</text></g><g clip-path="url(#clip29)"><path d="M4565 685 4653 685" stroke="#70AD47" stroke-width="10.3125" stroke-linecap="round" stroke-linejoin="round" stroke-miterlimit="10" stroke-opacity="1" fill="none" fill-rule="evenodd"/></g><g clip-path="url(#clip30)"><text fill="#595959" fill-opacity="1" font-family="Calibri,Calibri_MSFontService,sans-serif" font-style="normal" font-variant="normal" font-weight="400" font-stretch="normal" font-size="41" text-anchor="start" direction="ltr" writing-mode="lr-tb" unicode-bidi="normal" text-decoration="none" transform="matrix(1 0 0 1 4662.52 695)">TFS</text></g><g clip-path="url(#clip31)"><path d="M4565 762 4653 762" stroke="#9DC3E6" stroke-width="10.3125" stroke-linecap="round" stroke-linejoin="round" stroke-miterlimit="10" stroke-opacity="1" fill="none" fill-rule="evenodd"/></g><g clip-path="url(#clip32)"><text fill="#595959" fill-opacity="1" font-family="Calibri,Calibri_MSFontService,sans-serif" font-style="normal" font-variant="normal" font-weight="400" font-stretch="normal" font-size="41" text-anchor="start" direction="ltr" writing-mode="lr-tb" unicode-bidi="normal" text-decoration="none" transform="matrix(1 0 0 1 4662.52 772)">SVN</text></g><g clip-path="url(#clip33)"><path d="M4565 840 4653 840" stroke="#ED7D31" stroke-width="10.3125" stroke-linecap="round" stroke-linejoin="round" stroke-miterlimit="10" stroke-opacity="1" fill="none" fill-rule="evenodd"/></g><g clip-path="url(#clip34)"><text fill="#595959" fill-opacity="1" font-family="Calibri,Calibri_MSFontService,sans-serif" font-style="normal" font-variant="normal" font-weight="400" font-stretch="normal" font-size="41" text-anchor="start" direction="ltr" writing-mode="lr-tb" unicode-bidi="normal" text-decoration="none" transform="matrix(1 0 0 1 4662.52 850)">Git</text></g><g clip-path="url(#clip35)"><path d="M4565 917 4653 917" stroke="#00B0F0" stroke-width="10.3125" stroke-linecap="round" stroke-linejoin="round" stroke-miterlimit="10" stroke-opacity="1" fill="none" fill-rule="evenodd"/></g><g clip-path="url(#clip36)"><text fill="#595959" fill-opacity="1" font-family="Calibri,Calibri_MSFontService,sans-serif" font-style="normal" font-variant="normal" font-weight="400" font-stretch="normal" font-size="41" text-anchor="start" direction="ltr" writing-mode="lr-tb" unicode-bidi="normal" text-decoration="none" transform="matrix(1 0 0 1 4662.52 927)">Perforce</text></g><rect x="3221.5" y="143.5" width="1650" height="1063" stroke="#D9D9D9" stroke-width="3.4375" stroke-linecap="butt" stroke-linejoin="round" stroke-miterlimit="10" stroke-opacity="1" fill="none"/></g></svg>